<?xml version="1.0" standalone="no"?>
<!DOCTYPE svg PUBLIC "-//W3C//DTD SVG 20010904//EN"
 "http://www.w3.org/TR/2001/REC-SVG-20010904/DTD/svg10.dtd">
<svg version="1.0" xmlns="http://www.w3.org/2000/svg"
 width="300.000000pt" height="300.000000pt" viewBox="0 0 300.000000 300.000000"
 preserveAspectRatio="xMidYMid meet">
<metadata>
Created by potrace 1.10, written by Peter Selinger 2001-2011
</metadata>
<g transform="translate(0.000000,300.000000) scale(0.100000,-0.100000)"
fill="#000000" stroke="none">
<path d="M1285 2983 c-178 -21 -428 -114 -588 -217 -183 -119 -349 -286 -469
-472 -109 -170 -200 -434 -213 -620 -5 -80 -5 -87 8 -64 8 14 17 48 21 77 25
212 118 454 247 645 80 118 256 294 374 374 107 73 226 134 338 174 105 37
186 57 316 76 25 4 59 13 76 20 29 13 29 13 -25 12 -30 0 -68 -3 -85 -5z"/>
<path d="M1606 2976 c17 -8 55 -17 85 -21 83 -9 247 -50 330 -83 254 -101 449
-243 614 -447 176 -218 268 -425 315 -711 6 -40 18 -91 26 -115 14 -43 14 -42
9 56 -12 242 -117 516 -284 740 -247 333 -660 568 -1036 590 -84 5 -88 4 -59
-9z"/>
<path d="M1330 2930 c-86 -10 -249 -50 -330 -82 -142 -54 -324 -160 -425 -248
-202 -175 -367 -421 -445 -661 -47 -146 -62 -248 -63 -434 0 -147 3 -199 21
-285 40 -195 138 -416 250 -566 124 -164 301 -321 472 -416 299 -167 684 -219
1025 -138 261 62 483 188 679 384 207 206 336 442 398 728 28 134 31 439 4
558 -130 581 -531 996 -1090 1130 -138 33 -357 46 -496 30z m444 -51 c284 -58
507 -179 717 -388 275 -276 412 -603 413 -986 0 -391 -135 -718 -413 -996
-209 -209 -432 -329 -724 -390 -135 -29 -379 -31 -512 -5 -300 59 -533 182
-745 395 -213 213 -329 429 -392 725 -30 143 -30 389 0 532 60 281 175 501
366 702 234 245 534 394 869 432 105 13 307 2 421 -21z"/>
<path d="M1260 2740 c-259 -50 -463 -160 -656 -354 -186 -187 -285 -369 -344
-631 -30 -131 -33 -358 -6 -485 81 -395 318 -715 656 -889 206 -106 362 -144
590 -144 124 0 175 5 255 23 262 58 444 158 631 344 253 251 374 542 374 896
0 259 -71 492 -215 711 -65 98 -240 271 -340 337 -149 99 -319 167 -490 196
-122 21 -332 19 -455 -4z m451 -26 c249 -46 470 -159 639 -325 242 -237 365
-510 377 -839 9 -266 -52 -501 -185 -705 -197 -302 -462 -485 -804 -556 -118
-24 -329 -29 -438 -9 -137 24 -336 96 -420 151 -14 9 -50 32 -80 51 -63 41
-132 101 -199 171 -256 270 -375 642 -325 1012 63 465 384 852 832 1004 51 17
127 38 170 45 107 20 330 20 433 0z"/>
<path d="M983 2311 c-42 -26 -47 -37 -72 -171 -13 -63 -40 -203 -61 -310 -21
-107 -62 -314 -90 -460 -28 -146 -61 -312 -72 -370 -35 -178 -19 -205 142
-234 135 -25 157 -24 189 10 24 24 33 50 55 159 15 72 29 144 32 160 30 173
143 727 149 734 6 5 7 -38 10 -559 1 -228 3 -426 3 -438 1 -13 16 -37 33 -53
31 -29 32 -29 160 -29 l128 0 35 30 34 30 30 -30 c28 -28 36 -30 103 -30 55 0
77 4 92 17 19 17 20 17 31 -2 22 -39 65 -75 88 -75 31 0 60 31 86 93 12 26 23
47 25 47 3 0 31 -26 64 -58 110 -109 138 -116 209 -50 49 45 74 85 74 117 0
10 -34 55 -75 99 -41 44 -75 83 -75 86 0 3 24 17 53 30 55 24 71 38 81 73 14
45 -35 77 -224 149 -96 36 -183 68 -193 71 -16 5 -16 8 3 39 20 32 21 44 18
418 l-3 386 -33 32 -32 33 -123 0 c-172 0 -197 -19 -201 -147 -2 -40 -4 -78
-5 -85 0 -8 -14 -3 -37 12 -34 23 -46 25 -150 25 -65 0 -124 -5 -139 -12 -14
-6 -28 -9 -31 -6 -3 3 2 40 11 82 25 124 2 150 -160 181 -49 9 -99 19 -110 21
-11 2 -34 -4 -52 -15z m138 -31 c135 -27 137 -28 154 -54 13 -19 8 -53 -46
-331 -33 -171 -93 -481 -134 -690 -40 -209 -76 -387 -80 -396 -14 -36 -49 -40
-162 -18 -129 25 -153 38 -153 81 0 17 59 335 131 707 120 621 133 678 155
699 14 12 27 22 28 22 2 0 50 -9 107 -20z m856 -65 c13 -3 28 -17 33 -31 12
-31 14 -794 2 -794 -5 0 -54 18 -111 40 -115 45 -161 50 -191 20 -11 -11 -21
-20 -22 -20 -5 0 2 735 7 757 3 12 16 25 30 30 28 9 214 8 252 -2z m-372 -210
l25 -24 0 -574 c0 -697 19 -627 -167 -627 -104 0 -130 3 -145 17 -17 15 -18
47 -18 609 l0 593 22 15 c17 12 50 16 141 16 112 0 119 -1 142 -25z m87 -589
c10 -7 15 -21 12 -32 -3 -11 -1 -38 4 -62 7 -29 7 -40 -1 -35 -19 12 1 -55 86
-281 l83 -221 -74 -3 c-114 -4 -109 -16 -114 260 -3 170 -7 233 -16 236 -13 4
-18 152 -4 152 4 0 15 -6 24 -14z m391 -123 c172 -64 318 -121 325 -126 33
-26 5 -64 -68 -90 -25 -9 -58 -21 -74 -27 l-30 -11 97 -97 c61 -61 97 -105 97
-118 0 -23 -100 -124 -122 -124 -7 0 -58 45 -113 100 l-99 99 -28 -75 c-33
-92 -44 -106 -76 -102 -23 3 -34 27 -144 318 -65 173 -118 321 -118 330 0 17
19 40 33 40 4 0 149 -53 320 -117z"/>
<path d="M1035 2146 c-28 -21 -9 -48 41 -58 21 -4 49 -10 61 -13 12 -3 28 2
37 11 25 25 4 50 -47 57 -23 3 -50 9 -58 12 -8 3 -23 -1 -34 -9z"/>
<path d="M1011 2046 c-13 -16 -6 -42 14 -50 8 -3 40 -8 73 -12 51 -5 60 -4 66
11 10 27 -9 41 -71 54 -70 14 -68 14 -82 -3z"/>
<path d="M1774 2075 c-14 -37 3 -46 78 -43 70 3 73 4 73 28 0 24 -3 25 -73 28
-58 2 -73 0 -78 -13z"/>
<path d="M1774 1975 c-14 -37 3 -46 78 -43 70 3 73 4 73 28 0 24 -3 25 -73 28
-58 2 -73 0 -78 -13z"/>
<path d="M1390 1886 c-15 -15 -12 -43 6 -50 9 -3 42 -6 75 -6 46 0 61 4 66 16
13 34 -10 49 -76 49 -34 0 -66 -4 -71 -9z"/>
<path d="M1392 1788 c-17 -17 -15 -45 4 -52 9 -3 37 -6 64 -6 63 0 80 7 80 35
0 13 -7 26 -16 29 -28 11 -120 6 -132 -6z"/>
<path d="M2972 1393 c-6 -21 -18 -83 -27 -137 -32 -194 -120 -410 -237 -587
-53 -79 -170 -207 -263 -289 -184 -162 -466 -290 -725 -331 -85 -13 -112 -19
-129 -30 -26 -17 153 -1 254 23 546 128 986 567 1114 1114 20 86 40 274 29
274 -3 0 -10 -17 -16 -37z"/>
<path d="M14 1326 c8 -98 42 -244 83 -351 134 -357 398 -648 738 -815 188 -92
341 -136 509 -146 79 -4 80 -4 44 10 -20 8 -72 20 -115 26 -289 42 -589 195
-803 410 -53 52 -104 106 -115 120 -152 195 -264 448 -306 693 -25 151 -44
180 -35 53z"/>
</g>
</svg>
