<?xml version="1.0" encoding="UTF-8"?>
<svg version="1.1" xmlns="http://www.w3.org/2000/svg" width="512" height="512">
<path d="M0 0 C0.84401367 0.17160645 1.68802734 0.34321289 2.55761719 0.52001953 C41.72469553 8.58552573 76.65486295 26.94149701 106 54 C106.8559375 54.7528125 107.711875 55.505625 108.59375 56.28125 C113.83946047 60.89494716 118.57627153 65.59811643 123 71 C123.42506836 71.50740723 123.85013672 72.01481445 124.28808594 72.53759766 C154.20381519 108.29479909 174.77235248 154.7562951 175.23828125 201.93359375 C175.24812042 202.76053238 175.25795959 203.58747101 175.26809692 204.43946838 C175.85674436 266.80801343 155.94338352 320.48735421 113 366 C112.19820313 366.8559375 111.39640625 367.711875 110.5703125 368.59375 C103.92547412 375.47823829 96.63389168 381.27250681 89 387 C88.43796875 387.42812988 87.8759375 387.85625977 87.296875 388.29736328 C42.58423137 422.23666258 -15.39109974 435.57747062 -70.71679688 428.47827148 C-96.10402274 424.83978325 -120.45711433 417.24430996 -143 405 C-143.99290039 404.47237061 -143.99290039 404.47237061 -145.00585938 403.93408203 C-167.67819508 391.86567367 -189.74937779 375.02186366 -206 355 C-206.88773012 353.94767136 -207.77578115 352.89561339 -208.6640625 351.84375 C-220.56817314 337.55881724 -230.28057564 321.90654188 -238 305 C-238.4942749 303.93458984 -238.4942749 303.93458984 -238.99853516 302.84765625 C-262.41735349 251.86608712 -264.4902666 192.15399132 -245.65625 139.36328125 C-242.81870231 131.7365151 -239.5273121 124.33032216 -236 117 C-235.65598145 116.28457031 -235.31196289 115.56914062 -234.95751953 114.83203125 C-225.12132085 94.69189856 -211.35701436 77.21845353 -196 61 C-195.1234375 60.06929687 -194.246875 59.13859375 -193.34375 58.1796875 C-186.42653569 51.03868096 -178.96370189 44.92794122 -171 39 C-170.14664063 38.36320312 -169.29328125 37.72640625 -168.4140625 37.0703125 C-120.89642895 2.81341389 -57.70034721 -12.43019249 0 0 Z " fill="#EA5623" transform="translate(297,43)"/>
<path d="M0 0 C1.01823853 0.00215515 2.03647705 0.0043103 3.08557129 0.00653076 C17.70747424 0.05622604 32.00633932 0.36188758 46.375 3.3125 C47.89383789 3.61051514 47.89383789 3.61051514 49.44335938 3.91455078 C97.33223881 13.49089201 141.79848903 35.78506667 176.87475586 69.90942383 C178.93859956 71.83959628 181.16756034 73.55032168 183.375 75.3125 C184.47309154 76.46716769 185.5374861 77.65499631 186.5625 78.875 C188.5262211 81.18501171 190.50144722 83.44563755 192.58984375 85.64453125 C205.21399451 98.96434023 215.27358599 114.43358226 224.375 130.3125 C224.80409668 131.06080078 225.23319336 131.80910156 225.67529297 132.58007812 C238.71070917 155.62033667 247.38567422 180.84839856 252.6875 206.75 C252.83485596 207.46889404 252.98221191 208.18778809 253.1340332 208.9284668 C256.10789088 224.57475609 256.74800362 240.04818046 256.6875 255.9375 C256.68534485 256.95540619 256.6831897 257.97331238 256.68096924 259.02206421 C256.63129854 273.63113523 256.38040191 287.96325853 253.375 302.3125 C253.07698486 303.77478027 253.07698486 303.77478027 252.77294922 305.26660156 C242.92075995 352.36523222 221.93479251 395.46985483 188.8828125 430.59375 C187.10997467 432.51570503 185.43556591 434.42927239 183.78515625 436.44921875 C181.83630074 438.76447173 179.99189028 440.69051185 177.6875 442.625 C174.67818744 445.18207821 171.76508138 447.80906708 168.875 450.5 C135.61747051 480.36597016 93.50517529 499.70708716 49.9375 508.625 C49.21860596 508.77235596 48.49971191 508.91971191 47.7590332 509.0715332 C33.08339502 511.86090125 18.55831162 512.66142619 3.64770508 512.62817383 C0.70811513 512.6250221 -2.2304558 512.64854926 -5.16992188 512.67382812 C-18.54306192 512.71848737 -31.43916711 511.51301542 -44.625 509.3125 C-46.33055054 509.03031616 -46.33055054 509.03031616 -48.07055664 508.74243164 C-50.6662622 508.27617402 -53.23774939 507.7574418 -55.8125 507.1875 C-57.20142456 506.88054199 -57.20142456 506.88054199 -58.6184082 506.56738281 C-101.81787364 496.52249509 -141.64439095 475.17908436 -173.90625 444.8203125 C-175.82943486 443.04634026 -177.74453578 441.37049361 -179.765625 439.71875 C-182.0600781 437.78789876 -183.96239466 435.97256007 -185.875 433.6875 C-187.81625892 431.39867944 -189.76872424 429.16115787 -191.8359375 426.984375 C-230.63243117 386.0534464 -255.54616325 325.5650356 -255.828125 269.08203125 C-255.83871445 267.66469948 -255.83871445 267.66469948 -255.84951782 266.21873474 C-256.07545553 227.11525741 -256.07545553 227.11525741 -252.625 210.3125 C-252.42632324 209.29994141 -252.22764648 208.28738281 -252.02294922 207.24414062 C-242.44660799 159.35526119 -220.15243333 114.88901097 -186.02807617 79.81274414 C-184.09790372 77.74890044 -182.38717832 75.51993966 -180.625 73.3125 C-179.47033231 72.21440846 -178.28250369 71.1500139 -177.0625 70.125 C-174.75248829 68.1612789 -172.49186245 66.18605278 -170.29296875 64.09765625 C-137.84433247 33.34372602 -94.77023809 13.81543336 -51.4375 4.5625 C-50.51267822 4.36366211 -49.58785645 4.16482422 -48.63500977 3.95996094 C-32.4283142 0.66808618 -16.49462039 -0.06280274 0 0 Z M-146.625 67.3125 C-147.49769531 67.993125 -148.37039062 68.67375 -149.26953125 69.375 C-185.06925123 97.88897902 -211.94791155 135.94417917 -226.625 179.3125 C-226.90037598 180.116875 -227.17575195 180.92125 -227.45947266 181.75 C-234.25103353 201.92408799 -238.7103819 223.37289862 -238.828125 244.703125 C-238.83518463 245.56182693 -238.84224426 246.42052887 -238.84951782 247.30525208 C-239.11330826 273.45841773 -239.11330826 273.45841773 -235.625 299.3125 C-235.32698486 300.7680127 -235.32698486 300.7680127 -235.02294922 302.25292969 C-227.27084738 339.28881398 -212.21714436 373.60547998 -188.625 403.3125 C-187.6040625 404.62154297 -187.6040625 404.62154297 -186.5625 405.95703125 C-158.04852098 441.75675123 -119.99332083 468.63541155 -76.625 483.3125 C-75.820625 483.58787598 -75.01625 483.86325195 -74.1875 484.14697266 C-14.50407785 504.23926108 51.16218083 498.55033042 107.49389648 470.97314453 C121.6779733 463.79308739 134.92972372 455.19604788 147.375 445.3125 C148.24769531 444.631875 149.12039063 443.95125 150.01953125 443.25 C200.09880795 403.36255267 231.2102987 345.46351991 238.90771484 282.07666016 C239.41759188 277.38451324 239.55225509 272.73643904 239.578125 268.01953125 C239.58871445 266.72935593 239.58871445 266.72935593 239.59951782 265.41311646 C239.86645887 239.21302738 239.86645887 239.21302738 236.375 213.3125 C236.17632324 212.3421582 235.97764648 211.37181641 235.77294922 210.37207031 C228.02084738 173.33618602 212.96714436 139.01952002 189.375 109.3125 C188.694375 108.43980469 188.01375 107.56710938 187.3125 106.66796875 C158.70732315 70.75374855 120.76416246 44.22385768 77.375 29.3125 C76.68422363 29.06951172 75.99344727 28.82652344 75.28173828 28.57617188 C0.94520929 2.64611307 -85.26399918 18.58201176 -146.625 67.3125 Z " fill="#EA5522" transform="translate(255.625,-0.3125)"/>
<path d="M0 0 C2.10882939 0.40235857 4.2200077 0.79034972 6.33154297 1.17822266 C7.68717929 1.43645911 9.04265433 1.69554395 10.39794922 1.95556641 C11.61321289 2.1848584 12.82847656 2.41415039 14.08056641 2.65039062 C18.89535356 3.9392699 21.57393049 5.36016332 24.35107422 9.52587891 C24.88254909 17.07282209 23.49335691 24.02756694 21.97607422 31.40087891 C21.53026328 33.62734166 21.08494603 35.85390333 20.64013672 38.08056641 C20.42067383 39.16764893 20.20121094 40.25473145 19.97509766 41.37475586 C19.40255689 44.26590753 18.86352205 47.16008657 18.34326172 50.06103516 C17.26203574 56.0870388 16.06087091 62.08705413 14.85107422 68.08837891 C14.53203125 69.67682617 14.53203125 69.67682617 14.20654297 71.29736328 C13.41723504 75.22695461 12.62709087 79.15637652 11.83520508 83.08544922 C10.49255043 89.7671543 9.19864142 96.45788216 7.91357422 103.15087891 C7.69258057 104.30023926 7.47158691 105.44959961 7.24389648 106.63378906 C6.07541562 112.71982314 4.92013119 118.80787982 3.78857422 124.90087891 C2.22559046 133.28415545 0.54368553 141.6429575 -1.14057922 150.00257874 C-1.30833359 150.83526779 -1.47608795 151.66795685 -1.64892578 152.52587891 C-1.79371368 153.24360977 -1.93850159 153.96134064 -2.087677 154.70082092 C-3.52541027 161.85568594 -4.9114302 169.02023062 -6.29345703 176.18603516 C-6.54761138 177.50191739 -6.80181894 178.81778935 -7.05607605 180.13365173 C-8.12299924 185.65560961 -9.1893412 191.17767942 -10.25463867 196.69995117 C-10.38466845 197.37382181 -10.51469822 198.04769245 -10.64866829 198.74198341 C-10.91042537 200.09852484 -11.17210732 201.45508077 -11.43371391 202.81165123 C-12.08155742 206.16842148 -12.73242584 209.52455793 -13.38943481 212.87954712 C-14.62753289 219.2074263 -15.8388487 225.53757829 -16.97460938 231.88476562 C-17.18607101 233.02964951 -17.39753265 234.17453339 -17.61540222 235.35411072 C-18.00745354 237.47831839 -18.38555649 239.60517056 -18.74653625 241.73487854 C-19.87193058 247.71685811 -21.16772879 251.31561594 -25.64892578 255.52587891 C-34.42198537 258.4502321 -46.12558499 254.98139025 -55.02392578 253.33837891 C-56.14669922 253.1546875 -57.26947266 252.97099609 -58.42626953 252.78173828 C-65.23970735 251.5228209 -70.09760216 249.937022 -74.64892578 244.52587891 C-78.12208439 237.57956169 -74.6346553 227.65840811 -73.08374023 220.55981445 C-72.609569 218.34177932 -72.16891236 216.11852998 -71.73095703 213.89306641 C-70.94746215 209.94900111 -70.10977034 206.0196764 -69.24658203 202.09228516 C-66.73495987 190.65270725 -64.24265142 179.25076201 -62.58666992 167.65112305 C-61.95815467 163.26287808 -61.11747039 158.97511479 -60.12646484 154.65405273 C-59.46115913 151.68908859 -58.9322261 148.7046467 -58.39892578 145.71337891 C-56.99816677 138.00634954 -55.3222652 130.3651223 -53.64892578 122.71337891 C-51.68949793 113.72468328 -49.88698074 104.75862321 -48.58642578 95.6496582 C-47.95872557 91.26659692 -47.1204188 86.98325207 -46.13085938 82.66723633 C-45.44839299 79.63485911 -44.89269996 76.58368053 -44.33642578 73.52587891 C-43.01403884 66.34419236 -41.59019391 59.18456992 -40.14892578 52.02587891 C-38.75447062 45.09531316 -37.37521943 38.16441351 -36.08642578 31.21337891 C-35.85697266 29.99392578 -35.62751953 28.77447266 -35.39111328 27.51806641 C-34.98343288 25.34563248 -34.58625281 23.17209751 -34.20068359 20.99560547 C-33.71750897 18.27395044 -33.2154066 15.55624922 -32.71142578 12.83837891 C-32.56568115 11.98783936 -32.41993652 11.1372998 -32.26977539 10.26098633 C-31.34583699 5.37885076 -30.3486103 2.08929512 -26.64892578 -1.47412109 C-19.29367036 -5.89333195 -8.00565568 -1.53731114 0 0 Z " fill="#FEFDFC" transform="translate(194.64892578125,123.47412109375)"/>
<path d="M0 0 C0.86653702 -0.00524185 1.73307404 -0.0104837 2.62586975 -0.0158844 C4.4539381 -0.02229218 6.28204775 -0.02098373 8.11010742 -0.01245117 C10.8977243 -0.00394419 13.68328863 -0.03271365 16.47070312 -0.06445312 C18.25130147 -0.06606547 20.03190343 -0.06548697 21.8125 -0.0625 C22.64079819 -0.07373398 23.46909637 -0.08496796 24.32249451 -0.09654236 C29.66736515 -0.03260776 32.74775475 0.86414804 36.97265625 4.43359375 C39.45266159 8.15360176 39.25757666 11.01044034 39.24008179 15.31552124 C39.2446129 16.12718361 39.24914401 16.93884597 39.25381243 17.77510417 C39.26650768 20.50426087 39.26483277 23.23321932 39.26318359 25.96240234 C39.26916565 27.91530109 39.27597044 29.86819746 39.28353882 31.8210907 C39.30123892 37.13307542 39.30589589 42.44499576 39.30717039 47.75700712 C39.3090672 52.18803358 39.31642222 56.61904497 39.32351458 61.05006564 C39.33981138 71.50246035 39.34468236 81.9548206 39.34326172 92.40722656 C39.34205994 103.1971404 39.36316602 113.98685431 39.39474905 124.77671754 C39.42088172 134.03368936 39.43163028 143.29059577 39.4303509 152.5476042 C39.42984038 158.07935775 39.43557319 163.61093372 39.456707 169.1426506 C39.47603869 174.34489508 39.47624859 179.54679165 39.46167374 184.74904823 C39.45957823 186.65944869 39.46433047 188.56987063 39.47639465 190.48023415 C39.49178851 193.08646749 39.48257833 195.69149241 39.46713257 198.29769897 C39.47741969 199.05538712 39.48770682 199.81307526 39.49830568 200.59372365 C39.43393046 205.50222531 38.4743364 207.99700585 34.97265625 211.43359375 C31.96909642 213.43596697 31.34772955 213.69020475 27.97949219 213.75585938 C27.18146179 213.77507446 26.3834314 213.79428955 25.56121826 213.81408691 C24.70183655 213.82258667 23.84245483 213.83108643 22.95703125 213.83984375 C22.06783997 213.8512439 21.17864868 213.86264404 20.26251221 213.87438965 C18.37964632 213.89328225 16.49671442 213.90635473 14.61376953 213.9140625 C11.74653091 213.93343246 8.88218772 213.99545143 6.015625 214.05859375 C4.18361073 214.07165924 2.35157599 214.08215806 0.51953125 214.08984375 C-0.33175354 214.11453735 -1.18303833 214.13923096 -2.06011963 214.16467285 C-7.68761189 214.12300533 -10.61817155 212.86498618 -14.73406982 209.01599121 C-17.70586628 205.37982174 -17.17290766 201.10183391 -17.16778564 196.66555786 C-17.17224233 195.4664403 -17.17224233 195.4664403 -17.17678905 194.24309814 C-17.18548383 191.55544684 -17.18698494 188.86784004 -17.18847656 186.18017578 C-17.19310414 184.25683497 -17.19812872 182.33349507 -17.20352173 180.41015625 C-17.21665247 175.17876041 -17.22309186 169.9473774 -17.22753239 164.71596766 C-17.23046167 161.44930377 -17.23456617 158.18264341 -17.23903656 154.91598129 C-17.25271248 144.70018439 -17.26237901 134.48439552 -17.26623845 124.26859009 C-17.27072136 112.4666739 -17.28827968 100.66487341 -17.31723905 88.86299241 C-17.33883528 79.74615399 -17.34894161 70.62934817 -17.35027957 61.51248443 C-17.35132896 56.06459413 -17.35726533 50.61681256 -17.37509918 45.16894913 C-17.39154455 40.04555308 -17.39375258 34.92234793 -17.38496017 29.79893494 C-17.38418794 27.91756047 -17.38855702 26.03617589 -17.39841843 24.15482712 C-17.41108395 21.58818812 -17.40529074 19.02223078 -17.39483643 16.45559692 C-17.40692103 15.33657397 -17.40692103 15.33657397 -17.41924977 14.1949445 C-17.3769288 9.75819778 -16.72950148 6.97586503 -14.02734375 3.43359375 C-9.68821905 -0.2150229 -5.40647724 -0.01911482 0 0 Z " fill="#FEFDFC" transform="translate(238.02734375,165.56640625)"/>
<path d="M0 0 C2.77714133 0.71926738 5.43884815 1.68509479 8.125 2.6875 C9.14980469 3.05391602 9.14980469 3.05391602 10.1953125 3.42773438 C14.23772429 4.89533792 18.20587454 6.49902268 22.1640625 8.1796875 C31.75130321 12.206086 41.51795157 15.77946094 51.25 19.4375 C53.22793536 20.18275489 55.2058004 20.92819644 57.18359375 21.67382812 C65.07078504 24.64613028 72.96045757 27.61177368 80.85353088 30.56842041 C93.25225151 35.21317354 93.25225151 35.21317354 98.3125 37.1875 C99.52550781 37.65542969 100.73851562 38.12335938 101.98828125 38.60546875 C106.33606617 40.61864543 106.33606617 40.61864543 108 43 C107.9375 46.5 107.9375 46.5 107 50 C104.11531651 52.6671351 101.01810708 53.91888623 97.359375 55.26171875 C96.28945313 55.65810547 95.21953125 56.05449219 94.1171875 56.46289062 C93.00601563 56.86701172 91.89484375 57.27113281 90.75 57.6875 C89.62335938 58.10322266 88.49671875 58.51894531 87.3359375 58.94726562 C84.55942252 59.9708114 81.78079043 60.98814004 79 62 C80.6560391 66.38613974 83.96739369 69.11319582 87.28515625 72.26953125 C88.5507114 73.50005359 89.81566707 74.73119271 91.08007812 75.96289062 C93.07082515 77.89174151 95.0657214 79.81557264 97.0715332 81.72875977 C99.01060269 83.58293087 100.93007031 85.45568405 102.84765625 87.33203125 C103.74920189 88.17771416 103.74920189 88.17771416 104.66896057 89.04048157 C108.48105935 92.80504648 109.91685384 95.41648101 110 101 C108.91796875 103.08203125 108.91796875 103.08203125 107.1875 104.8125 C106.54167969 105.46992188 105.89585937 106.12734375 105.23046875 106.8046875 C104.12638672 107.89136719 104.12638672 107.89136719 103 109 C102.19175781 109.88945312 101.38351562 110.77890625 100.55078125 111.6953125 C99.70902344 112.60023438 98.86726563 113.50515625 98 114.4375 C97.21625 115.28183594 96.4325 116.12617188 95.625 116.99609375 C92.17980334 119.62613227 90.34768482 120.06209785 86 120 C83.02758399 118.14010616 80.77368916 115.68105655 78.38671875 113.1328125 C77.69109329 112.42349579 76.99546783 111.71417908 76.27876282 110.98336792 C74.06210393 108.71535082 71.87464097 106.42146198 69.6875 104.125 C67.47669207 101.84196227 65.26034022 99.56443436 63.04267883 97.28805542 C61.66509834 95.86981935 60.29269323 94.44653471 58.9259491 93.01785278 C58.30802994 92.37403656 57.69011078 91.73022034 57.0534668 91.06689453 C56.51054489 90.49762238 55.96762299 89.92835022 55.4082489 89.34182739 C54.02015881 87.88790062 54.02015881 87.88790062 52 87 C51.87616943 87.71260986 51.75233887 88.42521973 51.62475586 89.15942383 C50.51694608 94.19630025 48.44795734 98.89861539 46.5625 103.6875 C46.15451172 104.74517578 45.74652344 105.80285156 45.32617188 106.89257812 C44.93107422 107.90126953 44.53597656 108.90996094 44.12890625 109.94921875 C43.76869385 110.87049561 43.40848145 111.79177246 43.03735352 112.7409668 C42 115 42 115 40 117 C33.85515816 117.6827602 33.85515816 117.6827602 30.921875 115.34082031 C28.74173839 112.68544051 27.76513495 110.40933268 26.625 107.171875 C26.2029126 105.99455811 25.7808252 104.81724121 25.34594727 103.60424805 C25.12689728 102.97690765 24.90784729 102.34956726 24.68215942 101.70321655 C23.98953374 99.72003212 23.2837561 97.74199736 22.57397461 95.76489258 C21.82523935 93.67926645 21.07719429 91.59342854 20.33299255 89.50617981 C17.73931155 82.23571083 15.05356083 75.00061115 12.34350586 67.77282715 C11.57947067 65.73281259 10.8198031 63.6912112 10.06054688 61.64941406 C7.8437333 55.71334997 5.54282353 49.8591826 2.90942383 44.0949707 C1.23160442 40.22990537 -0.08512466 36.23797267 -1.4375 32.25 C-3.82394417 25.28819303 -6.33591651 18.4299894 -9.15234375 11.62890625 C-10.03850797 8.88057205 -10.28760107 6.86626152 -10 4 C-7.05660365 -0.18867942 -4.93442251 -0.40163904 0 0 Z " fill="#FEFDFD" transform="translate(305,272)"/>
<path d="M0 0 C0.84434097 -0.00524185 1.68868195 -0.0104837 2.55860901 -0.0158844 C4.33959863 -0.02229124 6.12063063 -0.02098494 7.90161133 -0.01245117 C10.61681989 -0.00394412 13.32992107 -0.03271456 16.04492188 -0.06445312 C17.77994729 -0.06606548 19.51497641 -0.06548695 21.25 -0.0625 C22.05642441 -0.07373398 22.86284882 -0.08496796 23.69371033 -0.09654236 C28.98524155 -0.03158757 32.01345418 0.90676117 36.19140625 4.43359375 C39.12998172 7.6344981 39.56418008 9.73204597 39.5521698 14.03973389 C39.55629379 15.18114334 39.56041779 16.3225528 39.56466675 17.49855042 C39.55388092 18.74651901 39.54309509 19.99448761 39.53198242 21.28027344 C39.53263954 23.25624763 39.53263954 23.25624763 39.53330994 25.2721405 C39.53417067 28.88141553 39.51653254 32.49039146 39.49558806 36.09959698 C39.47683415 39.87255525 39.47507184 43.64552038 39.47151184 47.41851807 C39.46218758 54.56185159 39.4375687 61.70504737 39.40746337 68.84832025 C39.37393118 76.9812497 39.35743633 85.11418574 39.34237707 93.24716711 C39.31101943 109.97605662 39.25825159 126.70480761 39.19140625 143.43359375 C37.59370308 142.96131169 35.99654891 142.48717212 34.39962769 142.01225281 C33.51015379 141.7484164 32.62067989 141.48457998 31.70425224 141.21274853 C28.71069792 140.28454116 25.83846932 139.16606738 22.94921875 137.953125 C21.31919922 137.29086914 21.31919922 137.29086914 19.65625 136.61523438 C17.43222647 135.70351479 15.21339114 134.77903376 13 133.84179688 C5.88428538 130.98287958 -1.12612384 128.71838139 -8.80859375 130.43359375 C-10.22725662 131.23981926 -11.6210022 132.09083092 -12.99264526 132.97468567 C-14.06653661 133.66188045 -14.06653661 133.66188045 -15.16212273 134.36295795 C-15.97712588 134.89292267 -15.97712588 134.89292267 -16.80859375 135.43359375 C-16.87871063 119.10887988 -16.93159501 102.78421494 -16.96403027 86.45938683 C-16.97949159 78.87928607 -17.00056699 71.29927894 -17.03491211 63.71923828 C-17.06483705 57.1115839 -17.0841741 50.50399733 -17.09085923 43.89627707 C-17.09476628 40.39831942 -17.10393284 36.90055577 -17.12578392 33.40266037 C-17.14999339 29.49545436 -17.15056175 25.58843722 -17.14916992 21.68115234 C-17.15995575 20.52453094 -17.17074158 19.36790955 -17.18185425 18.17623901 C-17.16009691 12.53941484 -17.11080113 8.24683088 -13.80859375 3.43359375 C-9.58962896 -0.2146805 -5.31124823 -0.0192862 0 0 Z " fill="#FEFDFC" transform="translate(304.80859375,131.56640625)"/>
<path d="M0 0 C2.82949382 2.82949382 3.70542303 6.26866917 5.01953125 9.96875 C5.31468628 10.78462585 5.60984131 11.60050171 5.91394043 12.44110107 C6.55174714 14.20506254 7.18716307 15.96988988 7.82046509 17.73547363 C9.49282774 22.39588486 11.1838352 27.04950996 12.875 31.703125 C13.21799637 32.64782654 13.56099274 33.59252808 13.91438293 34.56585693 C17.28614664 43.83017087 20.77747693 53.0469327 24.3125 62.25 C24.5884903 62.96937744 24.86448059 63.68875488 25.14883423 64.42993164 C28.06157162 72.11063803 28.06157162 72.11063803 31.15698242 79.71777344 C32 82 32 82 32 85 C27.93774179 85.11638426 23.8759137 85.18731373 19.8125 85.25 C18.66201172 85.28351563 17.51152344 85.31703125 16.32617188 85.3515625 C15.21435547 85.36445313 14.10253906 85.37734375 12.95703125 85.390625 C11.93585205 85.41157227 10.91467285 85.43251953 9.86254883 85.45410156 C6.2037973 84.87369407 4.61466646 83.58321225 2 81 C-0.45025701 77.37019611 -0.27010378 73.70243126 -0.22705078 69.47753906 C-0.22734283 68.72593002 -0.22763489 67.97432098 -0.22793579 67.19993591 C-0.22654519 64.72171384 -0.21099684 62.2437944 -0.1953125 59.765625 C-0.19158141 58.04498458 -0.18873489 56.32434203 -0.18673706 54.60369873 C-0.17910818 50.07942824 -0.15946608 45.55528656 -0.1373291 41.03106689 C-0.11685464 36.41265607 -0.10773192 31.7942244 -0.09765625 27.17578125 C-0.07621949 18.11713097 -0.04209251 9.0585762 0 0 Z " fill="#FEFBFA" transform="translate(288,294)"/>
<path d="M0 0 C0.87462891 -0.00386719 1.74925781 -0.00773438 2.65039062 -0.01171875 C3.56111328 -0.00011719 4.47183594 0.01148438 5.41015625 0.0234375 C6.77043945 0.00603516 6.77043945 0.00603516 8.15820312 -0.01171875 C9.03412109 -0.00785156 9.91003906 -0.00398437 10.8125 0 C11.61034912 0.00338379 12.40819824 0.00676758 13.23022461 0.01025391 C16.03809834 0.49632024 17.42336686 1.44029793 19.47265625 3.3984375 C19.97265625 6.3984375 19.97265625 6.3984375 19.47265625 9.3984375 C15.23772472 13.43455989 11.01416356 12.87947791 5.47265625 12.8359375 C4.5703125 12.85591797 3.66796875 12.87589844 2.73828125 12.89648438 C-3.83296194 12.89162399 -3.83296194 12.89162399 -7.15625 10.53125 C-8.52734375 8.3984375 -8.52734375 8.3984375 -8.46484375 5.8359375 C-6.74356947 1.36062436 -4.75347984 0.02018871 0 0 Z " fill="#ED6631" transform="translate(243.52734375,187.6015625)"/>
<path d="M0 0 C6.79854829 0.09016642 12.83109144 2.11135053 19.1875 4.375 C20.34375 10.0703125 20.34375 10.0703125 18.9375 12.8125 C14.43449382 15.37102624 10.14631112 14.19923482 5.1875 13.375 C4.33671875 13.24738281 3.4859375 13.11976563 2.609375 12.98828125 C-0.99039581 12.33865374 -3.39960927 11.66009121 -6.4375 9.5625 C-7.8125 7.375 -7.8125 7.375 -7.6875 4.75 C-6.09830658 0.43647499 -4.31133136 0.06312345 0 0 Z " fill="#EF682A" transform="translate(178.8125,160.625)"/>
<path d="M0 0 C1.04897461 0.13148438 1.04897461 0.13148438 2.11914062 0.265625 C12.61728041 1.67978041 12.61728041 1.67978041 16.1875 5.25 C15.9375 8.8125 15.9375 8.8125 15.1875 12.25 C8.33325879 15.67712061 -1.93333227 12.21805586 -8.8125 10.25 C-10.8125 8.25 -10.8125 8.25 -11.125 4.75 C-11.021875 3.595 -10.91875 2.44 -10.8125 1.25 C-6.95181415 -1.32379057 -4.35606549 -0.6318862 0 0 Z " fill="#EF6828" transform="translate(185.8125,144.75)"/>
<path d="M0 0 C0.96292969 -0.01611328 1.92585938 -0.03222656 2.91796875 -0.04882812 C3.84222656 -0.04947266 4.76648438 -0.05011719 5.71875 -0.05078125 C6.9862207 -0.05525269 6.9862207 -0.05525269 8.27929688 -0.05981445 C10.99996879 0.39632282 11.88471746 1.10440876 13.5 3.3125 C13.8125 6.375 13.8125 6.375 13.5 9.3125 C10.45896434 12.35353566 7.45158914 11.60580847 3.29492188 11.63476562 C2.22822266 11.63154297 1.16152344 11.62832031 0.0625 11.625 C-1.00033203 11.64111328 -2.06316406 11.65722656 -3.15820312 11.67382812 C-4.68670898 11.67479492 -4.68670898 11.67479492 -6.24609375 11.67578125 C-7.18122803 11.67876221 -8.1163623 11.68174316 -9.07983398 11.68481445 C-11.5 11.3125 -11.5 11.3125 -13.33618164 9.98120117 C-14.5 8.3125 -14.5 8.3125 -14.375 5.25 C-12.36239976 -1.50658653 -5.81347844 -0.01945609 0 0 Z " fill="#EC602B" transform="translate(249.5,204.6875)"/>
<path d="M0 0 C0.969375 -0.00386719 1.93875 -0.00773438 2.9375 -0.01171875 C3.948125 -0.00011719 4.95875 0.01148438 6 0.0234375 C7.010625 0.01183594 8.02125 0.00023437 9.0625 -0.01171875 C10.031875 -0.00785156 11.00125 -0.00398437 12 0 C12.886875 0.00338379 13.77375 0.00676758 14.6875 0.01025391 C17.45307876 0.47449274 18.34505824 1.16893734 20 3.3984375 C20.375 5.8984375 20.375 5.8984375 20 8.3984375 C18.34505824 10.62793766 17.45307876 11.32238226 14.6875 11.78662109 C13.800625 11.79000488 12.91375 11.79338867 12 11.796875 C11.030625 11.80074219 10.06125 11.80460938 9.0625 11.80859375 C8.051875 11.79699219 7.04125 11.78539062 6 11.7734375 C4.989375 11.78503906 3.97875 11.79664063 2.9375 11.80859375 C1.968125 11.80472656 0.99875 11.80085937 0 11.796875 C-0.886875 11.79349121 -1.77375 11.79010742 -2.6875 11.78662109 C-5.45307876 11.32238226 -6.34505824 10.62793766 -8 8.3984375 C-8.375 5.8984375 -8.375 5.8984375 -8 3.3984375 C-5.65980595 0.24578092 -3.82571222 0.01459665 0 0 Z " fill="#EB5A29" transform="translate(310,154.6015625)"/>
<path d="M0 0 C1.01513672 -0.020625 2.03027344 -0.04125 3.07617188 -0.0625 C4.53700195 -0.07023438 4.53700195 -0.07023438 6.02734375 -0.078125 C6.9205835 -0.0874707 7.81382324 -0.09681641 8.73413086 -0.10644531 C11.0625 0.25 11.0625 0.25 12.88500977 1.57910156 C14.0625 3.25 14.0625 3.25 13.9375 6.3125 C13.0625 9.25 13.0625 9.25 10.0625 11.25 C6.57677072 11.68111757 3.07203857 11.57424544 -0.4375 11.5625 C-1.88189453 11.58666992 -1.88189453 11.58666992 -3.35546875 11.61132812 C-4.27972656 11.61197266 -5.20398438 11.61261719 -6.15625 11.61328125 C-7.4237207 11.61775269 -7.4237207 11.61775269 -8.71679688 11.62231445 C-10.9375 11.25 -10.9375 11.25 -12.74804688 9.95385742 C-13.9375 8.25 -13.9375 8.25 -13.75 4.625 C-13.481875 3.51125 -13.21375 2.3975 -12.9375 1.25 C-9.05869395 -0.68940303 -4.26635864 0.02158815 0 0 Z " fill="#EA5A29" transform="translate(315.9375,171.75)"/>
</svg>
